<svg width="23" height="23" viewBox="0 0 23 23" fill="none" xmlns="http://www.w3.org/2000/svg">
<path fill-rule="evenodd" clip-rule="evenodd" d="M8.40676 6.78665C9.82795 4.47435 10.9177 2.74328 11.7661 1.61503C12.1938 1.04622 12.5667 0.62179 12.8955 0.352788C13.2191 0.0880716 13.5352 -0.0545535 13.8363 0.0194661C14.1366 0.0933136 14.3524 0.365896 14.5205 0.748564C14.6914 1.13765 14.8316 1.6831 14.9563 2.37807C15.2036 3.75575 15.3967 5.763 15.6295 8.40455C17.9196 9.74155 19.6528 10.7722 20.7935 11.5833C21.3689 11.9925 21.8025 12.3519 22.0816 12.6724C22.356 12.9876 22.5105 13.2991 22.4493 13.6022C22.3879 13.9061 22.1241 14.1311 21.7466 14.311C21.3631 14.4937 20.8202 14.65 20.1233 14.7943C18.7406 15.0807 16.7094 15.3283 14.0107 15.6278C12.589 17.9411 11.4989 19.6728 10.6502 20.8013C10.2225 21.3701 9.84967 21.7945 9.52081 22.0635C9.19719 22.3283 8.88111 22.4709 8.58008 22.3969C8.27974 22.323 8.06389 22.0504 7.89584 21.6678C7.72497 21.2787 7.58473 20.7332 7.46 20.0383C7.21268 18.6602 7.01953 16.6522 6.78664 14.0096C4.47435 12.5884 2.74328 11.4987 1.61503 10.6502C1.04622 10.2225 0.621791 9.84967 0.352788 9.52081C0.0880723 9.19719 -0.0545528 8.88111 0.0194668 8.58008C0.0933143 8.27975 0.365897 8.0639 0.748565 7.89584C1.13765 7.72497 1.68311 7.58473 2.37807 7.46C3.75614 7.21268 5.76412 7.01953 8.40676 6.78665ZM8.63124 7.01562C10.0743 4.6669 11.1688 2.92703 12.0148 1.80203C12.4383 1.23876 12.7932 0.838457 13.0925 0.593618C13.3971 0.344493 13.6097 0.284162 13.762 0.321604C13.9149 0.359217 14.077 0.512512 14.2356 0.873671C14.3914 1.22841 14.5266 1.74473 14.6501 2.43303C14.8968 3.80796 15.0903 5.82648 15.3266 8.51197C15.3312 8.56465 15.3616 8.60888 15.4043 8.63335C17.732 9.99198 19.475 11.0275 20.6132 11.8369C21.1831 12.2421 21.5925 12.5845 21.8469 12.8767C22.106 13.1742 22.1755 13.3862 22.1443 13.5406C22.1132 13.6943 21.968 13.8609 21.6128 14.0301C21.2637 14.1964 20.7503 14.3467 20.0602 14.4897C18.6817 14.7751 16.641 15.0232 13.9009 15.327C13.8513 15.3325 13.8097 15.3607 13.7854 15.4001C12.3422 17.7492 11.2476 19.4892 10.4016 20.6143C9.97799 21.1776 9.62314 21.5779 9.32381 21.8227C9.01925 22.0718 8.80664 22.1322 8.65437 22.0947C8.5014 22.0571 8.33932 21.9038 8.18072 21.5427C8.02493 21.1879 7.88977 20.6716 7.76625 19.9833C7.51949 18.6084 7.32606 16.5899 7.08972 13.9044C7.0852 13.853 7.05626 13.8098 7.01535 13.7849C4.66677 12.3419 2.92698 11.2475 1.80203 10.4016C1.23876 9.97799 0.838458 9.62314 0.593619 9.32382C0.344494 9.01925 0.284163 8.80664 0.321604 8.65437C0.359218 8.5014 0.512513 8.33933 0.873672 8.18072C1.22841 8.02493 1.74473 7.88977 2.43303 7.76625C3.80759 7.51955 5.82542 7.32617 8.50985 7.08991C8.51416 7.08958 8.51844 7.08908 8.5227 7.08841C8.54219 7.08534 8.56036 7.0787 8.57659 7.06925C8.59779 7.05694 8.61637 7.03943 8.63025 7.01722C8.63058 7.01669 8.63091 7.01616 8.63124 7.01562Z" fill="black"/>
<path d="M12.0148 1.80203C11.1688 2.92703 10.0743 4.6669 8.63124 7.01562L8.63025 7.01722C8.61637 7.03943 8.59779 7.05694 8.57659 7.06925C8.56036 7.0787 8.54219 7.08534 8.5227 7.08841C8.51844 7.08908 8.51416 7.08958 8.50985 7.08991C5.82542 7.32617 3.80759 7.51955 2.43303 7.76625C1.74473 7.88977 1.22841 8.02493 0.873672 8.18072C0.512513 8.33933 0.359218 8.5014 0.321604 8.65437C0.284163 8.80664 0.344494 9.01925 0.593619 9.32382C0.838458 9.62314 1.23876 9.97799 1.80203 10.4016C2.92698 11.2475 4.66677 12.3419 7.01535 13.7849C7.05626 13.8098 7.0852 13.853 7.08972 13.9044C7.32606 16.5899 7.51949 18.6084 7.76625 19.9833C7.88977 20.6716 8.02493 21.1879 8.18072 21.5427C8.33932 21.9038 8.5014 22.0571 8.65437 22.0947C8.80664 22.1322 9.01925 22.0718 9.32381 21.8227C9.62314 21.5779 9.97799 21.1776 10.4016 20.6143C11.2476 19.4892 12.3422 17.7492 13.7854 15.4001C13.8097 15.3607 13.8513 15.3325 13.9009 15.327C16.641 15.0232 18.6817 14.7751 20.0602 14.4897C20.7503 14.3467 21.2637 14.1964 21.6128 14.0301C21.968 13.8609 22.1132 13.6943 22.1443 13.5406C22.1755 13.3862 22.106 13.1742 21.8469 12.8767C21.5925 12.5845 21.1831 12.2421 20.6132 11.8369C19.475 11.0275 17.732 9.99198 15.4043 8.63335C15.3616 8.60888 15.3312 8.56465 15.3266 8.51197C15.0903 5.82648 14.8968 3.80796 14.6501 2.43303C14.5266 1.74473 14.3914 1.22841 14.2356 0.873671C14.077 0.512512 13.9149 0.359217 13.762 0.321604C13.6097 0.284162 13.3971 0.344493 13.0925 0.593618C12.7932 0.838457 12.4383 1.23876 12.0148 1.80203Z" fill="black"/>
</svg>
